<?xml version="1.0" encoding="UTF-8" standalone="no"?>
<!DOCTYPE svg PUBLIC "-//W3C//DTD SVG 1.1//EN" "http://www.w3.org/Graphics/SVG/1.1/DTD/svg11.dtd">
<!-- Created with Vectornator (http://vectornator.io/) -->
<svg height="100%" stroke-miterlimit="10" style="fill-rule:nonzero;clip-rule:evenodd;stroke-linecap:round;stroke-linejoin:round;" version="1.1" viewBox="0 0 1920 1080" width="100%" xml:space="preserve" xmlns="http://www.w3.org/2000/svg" xmlns:vectornator="http://vectornator.io" xmlns:xlink="http://www.w3.org/1999/xlink">
<defs/>
<g id="Layer-1" vectornator:layerName="Layer 1">
<path d="M438.246 436.959L535.585 437.289C535.585 437.289 536.669 448.356 531.969 456.386C527.269 464.416 516.786 469.409 516.786 469.409C516.786 469.409 497.504 453.209 478.47 445.409C459.437 437.61 438.246 436.959 438.246 436.959Z" fill="#e94420" fill-rule="nonzero" opacity="0" stroke="#000000" stroke-linecap="butt" stroke-linejoin="miter" stroke-opacity="0" stroke-width="5.625"/>
<path d="M442.483 436.818C385.435 436.818 339.202 483.051 339.202 540.099C339.202 597.147 385.435 643.38 442.483 643.38C499.532 643.38 545.796 597.147 545.796 540.099C545.796 483.051 499.532 436.818 442.483 436.818ZM442.483 477.412C477.104 477.412 505.171 505.478 505.171 540.099C505.171 574.72 477.104 602.787 442.483 602.787C407.863 602.787 379.796 574.72 379.796 540.099C379.796 505.478 407.863 477.412 442.483 477.412Z" fill="#e94420" fill-rule="nonzero" opacity="0" stroke="#000000" stroke-linecap="butt" stroke-linejoin="miter" stroke-opacity="0" stroke-width="5.625"/>
<g opacity="1">
<path d="M952.484 437.611L1049.82 437.941C1049.82 437.941 1050.91 449.008 1046.21 457.038C1041.51 465.068 1031.02 470.061 1031.02 470.061C1031.02 470.061 1011.74 453.861 992.709 446.061C973.675 438.262 952.484 437.611 952.484 437.611Z" fill="#66eeff" fill-rule="nonzero" opacity="1" stroke="#000000" stroke-linecap="butt" stroke-linejoin="miter" stroke-opacity="0" stroke-width="5.625"/>
<path d="M858.612 740.583C858.612 740.583 858.569 739.343 858.537 737.295C858.41 729.091 858.467 707.912 862.228 701.486C866.928 693.456 877.411 688.463 877.411 688.463C877.411 688.463 1029.7 642.221 1048.74 650.02C1067.77 657.819 858.612 740.583 858.612 740.583Z" fill="#66eeff" fill-rule="nonzero" opacity="1" stroke="#000000" stroke-linecap="butt" stroke-linejoin="miter" stroke-opacity="0" stroke-width="5.625"/>
<path d="M956.722 437.47C899.674 437.47 853.441 483.703 853.441 540.751C853.441 597.799 899.674 644.032 956.722 644.032C1013.77 644.032 1060.03 597.799 1060.03 540.751C1060.03 483.703 1013.77 437.47 956.722 437.47ZM956.722 478.064C991.343 478.064 1019.41 506.13 1019.41 540.751C1019.41 575.372 991.343 603.439 956.722 603.439C922.101 603.439 894.034 575.372 894.034 540.751C894.034 506.13 922.101 478.063 956.722 478.064Z" fill="#66eeff" fill-rule="nonzero" opacity="1" stroke="#000000" stroke-linecap="butt" stroke-linejoin="miter" stroke-opacity="0" stroke-width="5.625"/>
</g>
<path d="M369.5 644.698C369.5 644.698 381.704 656.432 399.865 664.855C412.177 670.565 427.651 674.036 442.279 674.065C457.443 674.094 473.159 670.14 485.457 664.49C502.521 656.651 513.68 646.376 513.68 646.376L537.074 679.809C537.074 679.809 521.943 691.824 499.679 701.404C482.864 708.64 461.769 714.093 441.245 714.161C421.179 714.228 400.954 709.094 384.659 701.883C362.222 691.953 346.926 679.045 346.926 679.045L369.5 644.698Z" fill="#e94420" fill-rule="nonzero" opacity="0" stroke="#000000" stroke-linecap="butt" stroke-linejoin="miter" stroke-opacity="0" stroke-width="5.625"/>
</g>
</svg>
