<?xml version="1.0" encoding="UTF-8" standalone="no"?>
<!DOCTYPE svg PUBLIC "-//W3C//DTD SVG 1.1//EN" "http://www.w3.org/Graphics/SVG/1.1/DTD/svg11.dtd">
<!-- Created with Vectornator (http://vectornator.io/) -->
<svg height="100%" stroke-miterlimit="10" style="fill-rule:nonzero;clip-rule:evenodd;stroke-linecap:round;stroke-linejoin:round;" version="1.1" viewBox="0 0 1080 1080" width="100%" xml:space="preserve" xmlns="http://www.w3.org/2000/svg" xmlns:vectornator="http://vectornator.io" xmlns:xlink="http://www.w3.org/1999/xlink">
<defs/>
<g id="Layer-1" vectornator:layerName="Layer 1">
<g opacity="1">
<path d="M519.375 7.4483L861.784 8.60999C861.784 8.60999 865.596 47.5399 849.065 75.7866C832.533 104.033 795.657 121.597 795.657 121.597C795.657 121.597 727.827 64.6101 660.873 37.1743C593.918 9.7384 519.375 7.4483 519.375 7.4483Z" fill="#66eeff" fill-rule="nonzero" opacity="1" stroke="#000000" stroke-linecap="butt" stroke-linejoin="miter" stroke-opacity="0" stroke-width="5.625"/>
<path d="M189.163 1073.21C189.163 1073.21 189.011 1068.85 188.9 1061.65C188.452 1032.79 188.654 958.285 201.883 935.68C218.415 907.434 255.291 889.87 255.291 889.87C255.291 889.87 791.003 727.202 857.957 754.638C924.912 782.074 189.163 1073.21 189.163 1073.21Z" fill="#66eeff" fill-rule="nonzero" opacity="1" stroke="#000000" stroke-linecap="butt" stroke-linejoin="miter" stroke-opacity="0" stroke-width="5.625"/>
<path d="M534.282 6.95251C333.604 6.95251 170.971 169.586 170.971 370.264C170.971 570.942 333.604 733.576 534.282 733.576C734.96 733.576 897.704 570.942 897.704 370.264C897.704 169.586 734.96 6.95251 534.282 6.95251ZM534.282 149.749C656.068 149.749 754.798 248.479 754.798 370.264C754.798 492.05 656.068 590.779 534.282 590.779C412.497 590.779 313.767 492.05 313.767 370.264C313.767 248.479 412.497 149.749 534.282 149.749Z" fill="#66eeff" fill-rule="nonzero" opacity="1" stroke="#000000" stroke-linecap="butt" stroke-linejoin="miter" stroke-opacity="0" stroke-width="5.625"/>
</g>
</g>
</svg>
