<?xml version="1.0" encoding="UTF-8" standalone="no"?>
<!DOCTYPE svg PUBLIC "-//W3C//DTD SVG 1.1//EN" "http://www.w3.org/Graphics/SVG/1.1/DTD/svg11.dtd">
<!-- Created with Vectornator (http://vectornator.io/) -->
<svg height="100%" stroke-miterlimit="10" style="fill-rule:nonzero;clip-rule:evenodd;stroke-linecap:round;stroke-linejoin:round;" version="1.1" viewBox="0 0 512 512" width="100%" xml:space="preserve" xmlns="http://www.w3.org/2000/svg" xmlns:vectornator="http://vectornator.io" xmlns:xlink="http://www.w3.org/1999/xlink">
<defs/>
<clipPath id="ArtboardFrame">
<rect height="512" width="512" x="0" y="0"/>
</clipPath>
<g clip-path="url(#ArtboardFrame)" id="Layer-1" vectornator:layerName="Layer 1">
<path d="M217.531 1.03125L201.969 1.09375L182.438 1.28125L168.719 1.5625L159.969 1.8125L147.406 2.34375L139.469 2.78125L131.781 3.3125L124.406 3.9375L117.281 4.65625C80.1384 8.83775 54.7321 17.7992 35.5312 37C16.3305 56.2008 7.36901 81.6597 3.1875 118.781L2.46875 125.875L1.84375 133.25L1.3125 140.906L0.84375 148.906L0.5 157.188L0.21875 165.781L-0.03125 174.688L-0.1875 183.938L-0.375 203.438L-0.4375 219L-0.46875 289.688L-0.375 310.594L-0.1875 330.125L0.09375 343.844L0.34375 352.594L0.875 365.156L1.3125 373.094L1.84375 380.781L2.4375 388.156L3.1875 395.25C7.36901 432.393 16.3304 457.83 35.5312 477.031C54.732 496.232 80.1597 505.193 117.281 509.375L124.406 510.094L131.75 510.719L139.438 511.25L147.406 511.719L155.688 512.062L164.281 512.344L173.219 512.594L182.438 512.719L201.938 512.938L217.531 513L288.188 513.031L309.125 512.938L328.625 512.75L342.375 512.469L351.125 512.219L363.656 511.688L371.625 511.25L379.312 510.719L386.688 510.094L393.781 509.375C430.924 505.194 456.362 496.232 475.562 477.031C494.763 457.83 503.725 432.372 507.906 395.25L508.594 388.156L509.25 380.812L509.781 373.125L510.219 365.156L510.562 356.875L510.875 348.281L511.094 339.344L511.25 330.125L511.469 310.625L511.531 295.031L511.562 224.344L511.469 203.438L511.281 183.938L511 170.188L510.75 161.438L510.219 148.906L509.781 140.938L509.25 133.25L508.625 125.875L507.906 118.781C503.725 81.6384 494.763 56.2008 475.562 37C456.362 17.7992 430.903 8.83776 393.781 4.65625L386.688 3.96875L379.312 3.3125L371.625 2.78125L363.656 2.34375L355.375 2L346.781 1.6875L337.875 1.46875L328.625 1.3125L309.125 1.09375L293.562 1.03125L217.531 1.03125ZM141.562 93.9688L239.844 93.9688C244.581 93.967 248.944 96.4909 251.312 100.594C253.681 104.697 253.683 109.774 251.312 113.875L169.344 255.781L169.75 256.469L177.125 269.219L202.312 312.875L205.031 317.562L251.312 397.719C256.412 406.555 250.047 417.594 239.844 417.594L141.562 417.594C136.826 417.594 132.43 415.071 130.062 410.969L44.3125 262.406C41.9475 258.305 41.9475 253.258 44.3125 249.156L130.062 100.625C132.425 96.5157 136.822 93.974 141.562 93.9688ZM287.094 93.9688L385.281 93.9688C390.032 93.9649 394.417 96.5036 396.781 100.625C399.145 104.746 399.121 109.839 396.719 113.938L348.281 196.844C345.906 200.911 341.554 203.439 336.844 203.438L296.25 203.438C288.93 203.438 283 209.367 283 216.688L283 308.625L223.188 308.625C218.478 308.625 214.127 306.127 211.75 302.062L185.094 256.469L184.562 256.469L275.656 100.531C278.033 96.4649 282.384 93.9692 287.094 93.9688ZM352.062 203.438L407.438 203.438L455.281 203.438C462.601 203.438 468.531 209.367 468.531 216.688L468.531 303.5C468.527 310.817 462.598 316.75 455.281 316.75L420.688 316.75C413.369 316.757 407.433 322.682 407.438 330L407.438 406.844C407.437 414.169 401.512 420.101 394.188 420.094L296.25 420.094C288.93 420.094 283 414.164 283 406.844L283 312.219C283.001 309.87 283.627 307.559 284.812 305.531L340.625 210C343.001 205.931 347.35 203.437 352.062 203.438Z" fill="#ffffff" fill-rule="nonzero" opacity="1" stroke="none"/>
<path d="M220.01 307.571L222.195 311.352L222.202 311.352L220.02 307.571L220.01 307.571Z" fill="#ffffff" fill-rule="nonzero" opacity="1" stroke="none"/>
<path d="M199.816 272.598L199.823 272.588L193.926 262.372L193.916 262.372L199.816 272.598Z" fill="#ffffff" fill-rule="nonzero" opacity="1" stroke="none"/>
<path d="M220.01 307.571L220.02 307.571L199.823 272.588L199.816 272.598L220.01 307.571Z" fill="#ffffff" fill-rule="nonzero" opacity="1" stroke="none"/>
</g>
</svg>
