<svg fill="#fafafa" xmlns="http://www.w3.org/2000/svg"  viewBox="0 0 50 50" width="50px" height="50px"><path d="M 11.5 2 C 9.574219 2 8 3.550781 8 5.46875 L 8 43.90625 C 8 46.167969 9.855469 48 12.125 48 L 37.875 48 C 40.144531 48 42 46.167969 42 43.90625 L 42 14.5 C 42 14.234375 41.90625 13.96875 41.71875 13.78125 L 30.21875 2.28125 C 30.03125 2.09375 29.765625 2 29.5 2 Z M 30 4.90625 L 39.09375 14 L 31.65625 14 C 30.738281 14 30 13.261719 30 12.34375 Z M 18.9375 23 L 31.0625 23 C 32.132813 23 33 23.867188 33 24.9375 L 33 26 L 17 26 L 17 24.9375 C 17 23.867188 17.867188 23 18.9375 23 Z M 17 28 L 33 28 L 33 34 L 17 34 Z M 17 36 L 33 36 L 33 37.0625 C 33 38.132813 32.132813 39 31.0625 39 L 18.9375 39 C 17.867188 39 17 38.132813 17 37.0625 Z"/></svg>